<svg width="20" height="20" viewBox="0 0 20 20" fill="none" xmlns="http://www.w3.org/2000/svg">
<path d="M7.50033 2.5H12.5003L14.167 4.16667H17.5003C17.9606 4.16667 18.3337 4.53977 18.3337 5V16.6667C18.3337 17.1269 17.9606 17.5 17.5003 17.5H2.50033C2.04009 17.5 1.66699 17.1269 1.66699 16.6667V5C1.66699 4.53977 2.04009 4.16667 2.50033 4.16667H5.83366L7.50033 2.5ZM10.0003 15.8333C12.7617 15.8333 15.0003 13.5947 15.0003 10.8333C15.0003 8.07191 12.7617 5.83333 10.0003 5.83333C7.2389 5.83333 5.00033 8.07191 5.00033 10.8333C5.00033 13.5947 7.2389 15.8333 10.0003 15.8333ZM10.0003 14.1667C8.15938 14.1667 6.66699 12.6742 6.66699 10.8333C6.66699 8.99242 8.15938 7.5 10.0003 7.5C11.8412 7.5 13.3337 8.99242 13.3337 10.8333C13.3337 12.6742 11.8412 14.1667 10.0003 14.1667Z" fill="#BBBBBB"/>
</svg>
