<svg width="20" height="20" viewBox="0 0 20 20" fill="currentColor" xmlns="http://www.w3.org/2000/svg">
<path d="M10.0012 3.77378C11.9587 2.01667 14.9837 2.075 16.8692 3.96447C18.7547 5.85393 18.8195 8.86417 17.0658 10.8275L10.0002 17.9042L2.93481 10.8275C1.1812 8.86417 1.24675 5.84918 3.13146 3.96447C5.0183 2.07763 8.03798 2.01406 10.0012 3.77378ZM15.6895 5.14175C14.4402 3.88995 12.4233 3.83918 11.1145 5.01406L10.0019 6.0127L8.88874 5.01484C7.57614 3.83831 5.56287 3.89007 4.30997 5.14298C3.06852 6.38443 3.00619 8.37275 4.15027 9.686L10.0002 15.5453L15.8504 9.686C16.9949 8.37225 16.9328 6.38771 15.6895 5.14175Z" fill="currentColor"/>
</svg>
