<svg width="16" height="17" viewBox="0 0 16 17" fill="currentColor" xmlns="http://www.w3.org/2000/svg">
<path d="M12.0203 11.5778L14.8755 14.433L13.9327 15.3758L11.0775 12.5206C10.0509 13.342 8.74901 13.8333 7.33301 13.8333C4.02101 13.8333 1.33301 11.1453 1.33301 7.83331C1.33301 4.52131 4.02101 1.83331 7.33301 1.83331C10.645 1.83331 13.333 4.52131 13.333 7.83331C13.333 9.24931 12.8417 10.5512 12.0203 11.5778ZM10.6828 11.0832C11.498 10.243 11.9997 9.09705 11.9997 7.83331C11.9997 5.25498 9.91134 3.16665 7.33301 3.16665C4.75467 3.16665 2.66634 5.25498 2.66634 7.83331C2.66634 10.4116 4.75467 12.5 7.33301 12.5C8.59674 12.5 9.74274 11.9983 10.5829 11.1831L10.6828 11.0832Z" fill="currentColor"/>
</svg>
